<?xml version="1.0" encoding="UTF-8" standalone="no"?>
<!DOCTYPE svg PUBLIC "-//W3C//DTD SVG 1.1//EN"
 "http://www.w3.org/Graphics/SVG/1.1/DTD/svg11.dtd">
<!-- Generated by graphviz version 2.38.0 (20140413.2041)
 -->
<!-- Title: G Pages: 1 -->
<svg width="542pt" height="275pt"
 viewBox="0.00 0.00 542.41 274.98" xmlns="http://www.w3.org/2000/svg" xmlns:xlink="http://www.w3.org/1999/xlink">
<g id="graph0" class="graph" transform="scale(1 1) rotate(0) translate(7.992 266.992)">
<title>G</title>
<polygon fill="#000000" stroke="none" points="-7.992,7.992 -7.992,-266.992 534.42,-266.992 534.42,7.992 -7.992,7.992"/>
<!-- Event -->
<g id="node1" class="node"><title>Event</title>
<ellipse fill="none" stroke="#cfffac" cx="498.111" cy="-64" rx="28.1352" ry="18"/>
<text text-anchor="middle" x="498.111" y="-60.9" font-family="Arial" font-size="12.00" fill="#cfffac">Event</text>
</g>
<!-- Npm -->
<g id="node2" class="node"><title>Npm</title>
<ellipse fill="none" stroke="#c6c5fe" cx="406.794" cy="-18" rx="27" ry="18"/>
<text text-anchor="middle" x="406.794" y="-14.9" font-family="Arial" font-size="12.00" fill="#c6c5fe">Npm</text>
</g>
<!-- Npm&#45;&gt;Event -->
<g id="edge1" class="edge"><title>Npm&#45;&gt;Event</title>
<path fill="none" stroke="#757575" d="M428.96,-28.9014C440.142,-34.66 454.07,-41.8331 466.415,-48.1912"/>
<polygon fill="#757575" stroke="#757575" points="464.982,-51.3902 475.475,-52.8573 468.187,-45.1671 464.982,-51.3902"/>
</g>
<!-- PluginManager -->
<g id="node3" class="node"><title>PluginManager</title>
<ellipse fill="none" stroke="#c6c5fe" cx="264.998" cy="-56" rx="58.4615" ry="18"/>
<text text-anchor="middle" x="264.998" y="-52.9" font-family="Arial" font-size="12.00" fill="#c6c5fe">PluginManager</text>
</g>
<!-- PluginManager&#45;&gt;Event -->
<g id="edge2" class="edge"><title>PluginManager&#45;&gt;Event</title>
<path fill="none" stroke="#757575" d="M323.127,-57.9775C365.587,-59.4473 422.328,-61.4114 459.288,-62.6908"/>
<polygon fill="#757575" stroke="#757575" points="459.507,-66.2003 469.622,-63.0485 459.749,-59.2045 459.507,-66.2003"/>
</g>
<!-- PluginManager&#45;&gt;Npm -->
<g id="edge3" class="edge"><title>PluginManager&#45;&gt;Npm</title>
<path fill="none" stroke="#757575" d="M309.464,-44.1849C329.482,-38.7435 352.891,-32.3802 371.621,-27.2891"/>
<polygon fill="#757575" stroke="#757575" points="372.761,-30.6061 381.493,-24.6055 370.925,-23.8512 372.761,-30.6061"/>
</g>
<!-- Typedef/typedef -->
<g id="node4" class="node"><title>Typedef/typedef</title>
<ellipse fill="none" stroke="#cfffac" cx="75.1016" cy="-133" rx="60.8863" ry="18"/>
<text text-anchor="middle" x="75.1016" y="-129.9" font-family="Arial" font-size="12.00" fill="#cfffac">Typedef/typedef</text>
</g>
<!-- errors/ValidationError -->
<g id="node5" class="node"><title>errors/ValidationError</title>
<ellipse fill="none" stroke="#cfffac" cx="264.998" cy="-187" rx="78.5908" ry="18"/>
<text text-anchor="middle" x="264.998" y="-183.9" font-family="Arial" font-size="12.00" fill="#cfffac">errors/ValidationError</text>
</g>
<!-- index -->
<g id="node6" class="node"><title>index</title>
<ellipse fill="none" stroke="#c6c5fe" cx="75.1016" cy="-79" rx="27.1719" ry="18"/>
<text text-anchor="middle" x="75.1016" y="-75.9" font-family="Arial" font-size="12.00" fill="#c6c5fe">index</text>
</g>
<!-- index&#45;&gt;Event -->
<g id="edge4" class="edge"><title>index&#45;&gt;Event</title>
<path fill="none" stroke="#757575" d="M102.345,-80.2215C124.647,-81.1953 157.517,-82.4791 186.203,-83 296.283,-84.9989 324.63,-89.3089 433.794,-75 442.54,-73.8536 451.923,-72.3661 460.715,-70.8575"/>
<polygon fill="#757575" stroke="#757575" points="461.453,-74.2815 470.692,-69.0961 460.236,-67.3881 461.453,-74.2815"/>
</g>
<!-- index&#45;&gt;PluginManager -->
<g id="edge5" class="edge"><title>index&#45;&gt;PluginManager</title>
<path fill="none" stroke="#757575" d="M101.834,-75.8502C127.065,-72.7617 166.537,-67.93 200.221,-63.8069"/>
<polygon fill="#757575" stroke="#757575" points="200.965,-67.2419 210.466,-62.5528 200.115,-60.2938 200.965,-67.2419"/>
</g>
<!-- util/copy -->
<g id="node7" class="node"><title>util/copy</title>
<ellipse fill="none" stroke="#cfffac" cx="75.1016" cy="-241" rx="36.1402" ry="18"/>
<text text-anchor="middle" x="75.1016" y="-237.9" font-family="Arial" font-size="12.00" fill="#cfffac">util/copy</text>
</g>
<!-- util/schemaValidator -->
<g id="node8" class="node"><title>util/schemaValidator</title>
<ellipse fill="none" stroke="#c6c5fe" cx="75.1016" cy="-187" rx="75.2034" ry="18"/>
<text text-anchor="middle" x="75.1016" y="-183.9" font-family="Arial" font-size="12.00" fill="#c6c5fe">util/schemaValidator</text>
</g>
<!-- util/schemaValidator&#45;&gt;errors/ValidationError -->
<g id="edge6" class="edge"><title>util/schemaValidator&#45;&gt;errors/ValidationError</title>
<path fill="none" stroke="#757575" d="M150.363,-187C158.768,-187 167.394,-187 175.953,-187"/>
<polygon fill="#757575" stroke="#757575" points="175.954,-190.5 185.954,-187 175.954,-183.5 175.954,-190.5"/>
</g>
</g>
</svg>
