<?xml version="1.0" encoding="UTF-8" standalone="no"?>
<!DOCTYPE svg PUBLIC "-//W3C//DTD SVG 1.1//EN"
 "http://www.w3.org/Graphics/SVG/1.1/DTD/svg11.dtd">
<!-- Generated by graphviz version 2.38.0 (20140413.2041)
 -->
<!-- Title: G Pages: 1 -->
<svg width="761pt" height="225pt"
 viewBox="0.00 0.00 760.63 224.98" xmlns="http://www.w3.org/2000/svg" xmlns:xlink="http://www.w3.org/1999/xlink">
<g id="graph0" class="graph" transform="scale(1 1) rotate(0) translate(7.992 216.992)">
<title>G</title>
<polygon fill="#000000" stroke="none" points="-7.992,7.992 -7.992,-216.992 752.633,-216.992 752.633,7.992 -7.992,7.992"/>
<!-- Event -->
<g id="node1" class="node"><title>Event</title>
<ellipse fill="none" stroke="#cfffac" cx="475.949" cy="-72" rx="28.1352" ry="18"/>
<text text-anchor="middle" x="475.949" y="-68.9" font-family="Arial" font-size="12.00" fill="#cfffac">Event</text>
</g>
<!-- Npm -->
<g id="node2" class="node"><title>Npm</title>
<ellipse fill="none" stroke="#c6c5fe" cx="337.848" cy="-22" rx="27" ry="18"/>
<text text-anchor="middle" x="337.848" y="-18.9" font-family="Arial" font-size="12.00" fill="#c6c5fe">Npm</text>
</g>
<!-- Npm&#45;&gt;Event -->
<g id="edge1" class="edge"><title>Npm&#45;&gt;Event</title>
<path fill="none" stroke="#757575" d="M361.802,-30.5515C373.486,-34.8951 387.917,-40.2459 400.848,-45 414.03,-49.8467 428.546,-55.1444 441.21,-59.7534"/>
<polygon fill="#757575" stroke="#757575" points="440.314,-63.1519 450.908,-63.2803 442.707,-56.5734 440.314,-63.1519"/>
</g>
<!-- util/schemaValidator -->
<g id="node3" class="node"><title>util/schemaValidator</title>
<ellipse fill="none" stroke="#c6c5fe" cx="475.949" cy="-18" rx="75.2034" ry="18"/>
<text text-anchor="middle" x="475.949" y="-14.9" font-family="Arial" font-size="12.00" fill="#c6c5fe">util/schemaValidator</text>
</g>
<!-- Npm&#45;&gt;util/schemaValidator -->
<g id="edge2" class="edge"><title>Npm&#45;&gt;util/schemaValidator</title>
<path fill="none" stroke="#757575" d="M365.09,-21.2288C372.804,-21.002 381.69,-20.7409 390.995,-20.4674"/>
<polygon fill="#757575" stroke="#757575" points="391.33,-23.9592 401.222,-20.1668 391.124,-16.9622 391.33,-23.9592"/>
</g>
<!-- errors/ValidationError -->
<g id="node6" class="node"><title>errors/ValidationError</title>
<ellipse fill="none" stroke="#cfffac" cx="665.846" cy="-18" rx="78.5908" ry="18"/>
<text text-anchor="middle" x="665.846" y="-14.9" font-family="Arial" font-size="12.00" fill="#cfffac">errors/ValidationError</text>
</g>
<!-- util/schemaValidator&#45;&gt;errors/ValidationError -->
<g id="edge7" class="edge"><title>util/schemaValidator&#45;&gt;errors/ValidationError</title>
<path fill="none" stroke="#757575" d="M551.211,-18C559.616,-18 568.241,-18 576.801,-18"/>
<polygon fill="#757575" stroke="#757575" points="576.802,-21.5001 586.802,-18 576.802,-14.5001 576.802,-21.5001"/>
</g>
<!-- PluginManager -->
<g id="node4" class="node"><title>PluginManager</title>
<ellipse fill="none" stroke="#c6c5fe" cx="216.367" cy="-60" rx="58.4615" ry="18"/>
<text text-anchor="middle" x="216.367" y="-56.9" font-family="Arial" font-size="12.00" fill="#c6c5fe">PluginManager</text>
</g>
<!-- PluginManager&#45;&gt;Event -->
<g id="edge3" class="edge"><title>PluginManager&#45;&gt;Event</title>
<path fill="none" stroke="#757575" d="M274.213,-62.6483C323.897,-64.9629 394.613,-68.2573 437.495,-70.2551"/>
<polygon fill="#757575" stroke="#757575" points="437.355,-73.7523 447.507,-70.7215 437.681,-66.7599 437.355,-73.7523"/>
</g>
<!-- PluginManager&#45;&gt;Npm -->
<g id="edge4" class="edge"><title>PluginManager&#45;&gt;Npm</title>
<path fill="none" stroke="#757575" d="M257.818,-47.1349C272.636,-42.4222 289.227,-37.1455 303.368,-32.6481"/>
<polygon fill="#757575" stroke="#757575" points="304.702,-35.8966 313.171,-29.5303 302.58,-29.2258 304.702,-35.8966"/>
</g>
<!-- Typedef/typedef -->
<g id="node5" class="node"><title>Typedef/typedef</title>
<ellipse fill="none" stroke="#cfffac" cx="60.9431" cy="-137" rx="60.8863" ry="18"/>
<text text-anchor="middle" x="60.9431" y="-133.9" font-family="Arial" font-size="12.00" fill="#cfffac">Typedef/typedef</text>
</g>
<!-- index -->
<g id="node7" class="node"><title>index</title>
<ellipse fill="none" stroke="#c6c5fe" cx="60.9431" cy="-83" rx="27.1719" ry="18"/>
<text text-anchor="middle" x="60.9431" y="-79.9" font-family="Arial" font-size="12.00" fill="#c6c5fe">index</text>
</g>
<!-- index&#45;&gt;Event -->
<g id="edge5" class="edge"><title>index&#45;&gt;Event</title>
<path fill="none" stroke="#757575" d="M87.9954,-84.3798C107.287,-85.3301 134.218,-86.5068 157.886,-87 209.858,-88.0829 222.901,-88.9443 274.848,-87 331.732,-84.8709 397.521,-79.3488 437.673,-75.6324"/>
<polygon fill="#757575" stroke="#757575" points="438.169,-79.1013 447.798,-74.683 437.515,-72.1319 438.169,-79.1013"/>
</g>
<!-- index&#45;&gt;PluginManager -->
<g id="edge6" class="edge"><title>index&#45;&gt;PluginManager</title>
<path fill="none" stroke="#757575" d="M87.6228,-79.1503C105.605,-76.4545 130.435,-72.7322 153.426,-69.2857"/>
<polygon fill="#757575" stroke="#757575" points="154.113,-72.7219 163.483,-67.778 153.075,-65.7993 154.113,-72.7219"/>
</g>
<!-- util/copy -->
<g id="node8" class="node"><title>util/copy</title>
<ellipse fill="none" stroke="#cfffac" cx="60.9431" cy="-191" rx="36.1402" ry="18"/>
<text text-anchor="middle" x="60.9431" y="-187.9" font-family="Arial" font-size="12.00" fill="#cfffac">util/copy</text>
</g>
</g>
</svg>
