<?xml version="1.0" encoding="UTF-8" standalone="no"?>
<!DOCTYPE svg PUBLIC "-//W3C//DTD SVG 1.1//EN"
 "http://www.w3.org/Graphics/SVG/1.1/DTD/svg11.dtd">
<!-- Generated by graphviz version 2.38.0 (20140413.2041)
 -->
<!-- Title: G Pages: 1 -->
<svg width="472pt" height="268pt"
 viewBox="0.00 0.00 472.11 267.98" xmlns="http://www.w3.org/2000/svg" xmlns:xlink="http://www.w3.org/1999/xlink">
<g id="graph0" class="graph" transform="scale(1 1) rotate(0) translate(7.992 259.992)">
<title>G</title>
<polygon fill="#000000" stroke="none" points="-7.992,7.992 -7.992,-259.992 464.118,-259.992 464.118,7.992 -7.992,7.992"/>
<!-- Application -->
<g id="node1" class="node"><title>Application</title>
<ellipse fill="none" stroke="#c6c5fe" cx="75.1016" cy="-72" rx="46.3387" ry="18"/>
<text text-anchor="middle" x="75.1016" y="-68.9" font-family="Arial" font-size="12.00" fill="#c6c5fe">Application</text>
</g>
<!-- Plugin -->
<g id="node2" class="node"><title>Plugin</title>
<ellipse fill="none" stroke="#c6c5fe" cx="266.845" cy="-72" rx="30.3284" ry="18"/>
<text text-anchor="middle" x="266.845" y="-68.9" font-family="Arial" font-size="12.00" fill="#c6c5fe">Plugin</text>
</g>
<!-- Application&#45;&gt;Plugin -->
<g id="edge1" class="edge"><title>Application&#45;&gt;Plugin</title>
<path fill="none" stroke="#757575" d="M121.55,-72C153.424,-72 195.624,-72 226.146,-72"/>
<polygon fill="#757575" stroke="#757575" points="226.42,-75.5001 236.42,-72 226.42,-68.5001 226.42,-75.5001"/>
</g>
<!-- Npm -->
<g id="node4" class="node"><title>Npm</title>
<ellipse fill="none" stroke="#cfffac" cx="419.807" cy="-126" rx="27" ry="18"/>
<text text-anchor="middle" x="419.807" y="-122.9" font-family="Arial" font-size="12.00" fill="#cfffac">Npm</text>
</g>
<!-- Plugin&#45;&gt;Npm -->
<g id="edge6" class="edge"><title>Plugin&#45;&gt;Npm</title>
<path fill="none" stroke="#757575" d="M293.113,-81.0384C318.529,-90.1301 357.848,-104.195 385.734,-114.17"/>
<polygon fill="#757575" stroke="#757575" points="384.849,-117.57 395.444,-117.643 387.207,-110.979 384.849,-117.57"/>
</g>
<!-- Event -->
<g id="node6" class="node"><title>Event</title>
<ellipse fill="none" stroke="#cfffac" cx="419.807" cy="-18" rx="28.1352" ry="18"/>
<text text-anchor="middle" x="419.807" y="-14.9" font-family="Arial" font-size="12.00" fill="#cfffac">Event</text>
</g>
<!-- Plugin&#45;&gt;Event -->
<g id="edge5" class="edge"><title>Plugin&#45;&gt;Event</title>
<path fill="none" stroke="#757575" d="M293.113,-62.9616C318.23,-53.9768 356.925,-40.1355 384.745,-30.1839"/>
<polygon fill="#757575" stroke="#757575" points="386.221,-33.3734 394.458,-26.7098 383.863,-26.7824 386.221,-33.3734"/>
</g>
<!-- util/copy -->
<g id="node7" class="node"><title>util/copy</title>
<ellipse fill="none" stroke="#cfffac" cx="419.807" cy="-72" rx="36.1402" ry="18"/>
<text text-anchor="middle" x="419.807" y="-68.9" font-family="Arial" font-size="12.00" fill="#cfffac">util/copy</text>
</g>
<!-- Plugin&#45;&gt;util/copy -->
<g id="edge7" class="edge"><title>Plugin&#45;&gt;util/copy</title>
<path fill="none" stroke="#757575" d="M297.31,-72C318.858,-72 348.497,-72 373.106,-72"/>
<polygon fill="#757575" stroke="#757575" points="373.306,-75.5001 383.306,-72 373.306,-68.5001 373.306,-75.5001"/>
</g>
<!-- CliApplication -->
<g id="node3" class="node"><title>CliApplication</title>
<ellipse fill="none" stroke="#c6c5fe" cx="75.1016" cy="-126" rx="54.5753" ry="18"/>
<text text-anchor="middle" x="75.1016" y="-122.9" font-family="Arial" font-size="12.00" fill="#c6c5fe">CliApplication</text>
</g>
<!-- CliApplication&#45;&gt;Plugin -->
<g id="edge3" class="edge"><title>CliApplication&#45;&gt;Plugin</title>
<path fill="none" stroke="#757575" d="M117.273,-114.283C150.712,-104.766 197.423,-91.4727 229.493,-82.3455"/>
<polygon fill="#757575" stroke="#757575" points="230.696,-85.6423 239.356,-79.5387 228.78,-78.9097 230.696,-85.6423"/>
</g>
<!-- CliApplication&#45;&gt;Npm -->
<g id="edge2" class="edge"><title>CliApplication&#45;&gt;Npm</title>
<path fill="none" stroke="#757575" d="M130.026,-126C200.443,-126 321.838,-126 382.334,-126"/>
<polygon fill="#757575" stroke="#757575" points="382.548,-129.5 392.548,-126 382.548,-122.5 382.548,-129.5"/>
</g>
<!-- plugins/addCreatedAt -->
<g id="node5" class="node"><title>plugins/addCreatedAt</title>
<ellipse fill="none" stroke="#cfffac" cx="266.845" cy="-172" rx="80.784" ry="18"/>
<text text-anchor="middle" x="266.845" y="-168.9" font-family="Arial" font-size="12.00" fill="#cfffac">plugins/addCreatedAt</text>
</g>
<!-- CliApplication&#45;&gt;plugins/addCreatedAt -->
<g id="edge4" class="edge"><title>CliApplication&#45;&gt;plugins/addCreatedAt</title>
<path fill="none" stroke="#757575" d="M119.633,-136.553C143.994,-142.459 174.818,-149.932 201.877,-156.492"/>
<polygon fill="#757575" stroke="#757575" points="201.114,-159.908 211.657,-158.863 202.763,-153.105 201.114,-159.908"/>
</g>
<!-- Typedef/typedef -->
<g id="node8" class="node"><title>Typedef/typedef</title>
<ellipse fill="none" stroke="#cfffac" cx="75.1016" cy="-180" rx="60.8863" ry="18"/>
<text text-anchor="middle" x="75.1016" y="-176.9" font-family="Arial" font-size="12.00" fill="#cfffac">Typedef/typedef</text>
</g>
<!-- errors/ValidationError -->
<g id="node9" class="node"><title>errors/ValidationError</title>
<ellipse fill="none" stroke="#cfffac" cx="266.845" cy="-234" rx="78.5908" ry="18"/>
<text text-anchor="middle" x="266.845" y="-230.9" font-family="Arial" font-size="12.00" fill="#cfffac">errors/ValidationError</text>
</g>
<!-- index -->
<g id="node10" class="node"><title>index</title>
<ellipse fill="none" stroke="#c6c5fe" cx="75.1016" cy="-18" rx="27.1719" ry="18"/>
<text text-anchor="middle" x="75.1016" y="-14.9" font-family="Arial" font-size="12.00" fill="#c6c5fe">index</text>
</g>
<!-- index&#45;&gt;Plugin -->
<g id="edge9" class="edge"><title>index&#45;&gt;Plugin</title>
<path fill="none" stroke="#757575" d="M100.519,-24.949C133.32,-34.2841 191.863,-50.9452 229.757,-61.7295"/>
<polygon fill="#757575" stroke="#757575" points="228.812,-65.0995 239.388,-64.4705 230.728,-58.3668 228.812,-65.0995"/>
</g>
<!-- index&#45;&gt;Event -->
<g id="edge8" class="edge"><title>index&#45;&gt;Event</title>
<path fill="none" stroke="#757575" d="M102.424,-18C162.802,-18 311.427,-18 381.326,-18"/>
<polygon fill="#757575" stroke="#757575" points="381.446,-21.5001 391.446,-18 381.446,-14.5001 381.446,-21.5001"/>
</g>
<!-- util/schemaValidator -->
<g id="node11" class="node"><title>util/schemaValidator</title>
<ellipse fill="none" stroke="#c6c5fe" cx="75.1016" cy="-234" rx="75.2034" ry="18"/>
<text text-anchor="middle" x="75.1016" y="-230.9" font-family="Arial" font-size="12.00" fill="#c6c5fe">util/schemaValidator</text>
</g>
<!-- util/schemaValidator&#45;&gt;errors/ValidationError -->
<g id="edge10" class="edge"><title>util/schemaValidator&#45;&gt;errors/ValidationError</title>
<path fill="none" stroke="#757575" d="M150.277,-234C159.263,-234 168.511,-234 177.674,-234"/>
<polygon fill="#757575" stroke="#757575" points="177.966,-237.5 187.966,-234 177.966,-230.5 177.966,-237.5"/>
</g>
</g>
</svg>
